<svg xmlns="http://www.w3.org/2000/svg" width="259.922" height="87.219" viewBox="0 0 259.922 87.219">
  <g id="File_Search_Illustration" data-name="File Search Illustration" transform="translate(-347.762 -59.74)" opacity="0.5">
    <g id="Magnifier" transform="translate(446.642 59.74)">
      <g id="Rectangle_207" data-name="Rectangle 207" transform="matrix(0.695, 0.719, -0.719, 0.695, 44.5, 42.815)" fill="none" stroke="#9392a0" stroke-width="4">
        <rect width="24.486" height="9.727" rx="4.863" stroke="none"/>
        <rect x="2" y="2" width="20.486" height="5.727" rx="2.863" fill="none"/>
      </g>
      <g id="Path_3693" data-name="Path 3693" fill="none">
        <path d="M26.528,0A26.528,26.528,0,1,1,0,26.528,26.528,26.528,0,0,1,26.528,0Z" stroke="none"/>
        <path d="M 26.52792549133301 4.000003814697266 C 23.48491477966309 4.000003814697266 20.53504943847656 4.595081329345703 17.76026916503906 5.768714904785156 C 15.0781364440918 6.903160095214844 12.66849136352539 8.528057098388672 10.59828186035156 10.59828186035156 C 8.528057098388672 12.66849136352539 6.903160095214844 15.0781364440918 5.768714904785156 17.76026916503906 C 4.595081329345703 20.53504943847656 4.000003814697266 23.48491477966309 4.000003814697266 26.52792549133301 C 4.000003814697266 29.57093620300293 4.595081329345703 32.52080535888672 5.768714904785156 35.29558181762695 C 6.903160095214844 37.97771453857422 8.528057098388672 40.38735961914063 10.59828186035156 42.45756912231445 C 12.66849136352539 44.52779388427734 15.0781364440918 46.15269088745117 17.76026916503906 47.28713607788086 C 20.53504943847656 48.46076965332031 23.48491477966309 49.05584716796875 26.52792549133301 49.05584716796875 C 29.57093620300293 49.05584716796875 32.52080535888672 48.46076965332031 35.29558181762695 47.28713607788086 C 37.97771453857422 46.15269088745117 40.38735961914063 44.52779388427734 42.45756912231445 42.45756912231445 C 44.52779388427734 40.38735961914063 46.15269088745117 37.97771453857422 47.28713607788086 35.29558181762695 C 48.46076965332031 32.52080535888672 49.05584716796875 29.57093620300293 49.05584716796875 26.52792549133301 C 49.05584716796875 23.48491477966309 48.46076965332031 20.53504943847656 47.28713607788086 17.76026916503906 C 46.15269088745117 15.0781364440918 44.52779388427734 12.66849136352539 42.45756912231445 10.59828186035156 C 40.38735961914063 8.528057098388672 37.97771453857422 6.903160095214844 35.29558181762695 5.768714904785156 C 32.52080535888672 4.595081329345703 29.57093620300293 4.000003814697266 26.52792549133301 4.000003814697266 M 26.52792549133301 3.814697265625e-06 C 41.17889404296875 3.814697265625e-06 53.05584716796875 11.87695693969727 53.05584716796875 26.52792549133301 C 53.05584716796875 41.17889404296875 41.17889404296875 53.05584716796875 26.52792549133301 53.05584716796875 C 11.87695693969727 53.05584716796875 3.814697265625e-06 41.17889404296875 3.814697265625e-06 26.52792549133301 C 3.814697265625e-06 11.87695693969727 11.87695693969727 3.814697265625e-06 26.52792549133301 3.814697265625e-06 Z" stroke="none" fill="#9392a0"/>
      </g>
      <g id="Group_1478" data-name="Group 1478" transform="translate(15.388 22.179)">
        <line id="Line_20" data-name="Line 20" x2="5.292" y2="5.292" transform="translate(0 0.001)" fill="none" stroke="#9392a0" stroke-width="2"/>
        <line id="Line_21" data-name="Line 21" y1="5.292" x2="5.292" transform="translate(0 0.001)" fill="none" stroke="#9392a0" stroke-width="2"/>
      </g>
      <g id="Group_1479" data-name="Group 1479" transform="translate(32.21 22.179)">
        <line id="Line_20-2" data-name="Line 20" x2="5.292" y2="5.292" transform="translate(0 0.001)" fill="none" stroke="#9392a0" stroke-width="2"/>
        <line id="Line_21-2" data-name="Line 21" y1="5.292" x2="5.292" transform="translate(0 0.001)" fill="none" stroke="#9392a0" stroke-width="2"/>
      </g>
      <path id="Path_3686" data-name="Path 3686" d="M488.583,98.285a6.041,6.041,0,0,1,3.119-1.077,8.153,8.153,0,0,1,3.466,1.077" transform="translate(-465.348 -61.495)" fill="none" stroke="#9392a0" stroke-width="3"/>
    </g>
    <g id="Files" transform="translate(349.277 80.839)">
      <g id="Group_1480" data-name="Group 1480" transform="matrix(0.966, 0.259, -0.259, 0.966, 184.826, 0)">
        <g id="Path_3687" data-name="Path 3687" fill="none">
          <path d="M5.306,0H20.152V7.927H28.3V27.412a5.306,5.306,0,0,1-5.306,5.306H5.306A5.306,5.306,0,0,1,0,27.412V5.306A5.306,5.306,0,0,1,5.306,0Z" stroke="none"/>
          <path d="M 5.305585861206055 2.999996185302734 C 4.034276962280273 2.999996185302734 2.999996185302734 4.034276962280273 2.999996185302734 5.305585861206055 L 2.999996185302734 27.41218566894531 C 2.999996185302734 28.68349647521973 4.034276962280273 29.71777725219727 5.305585861206055 29.71777725219727 L 22.99086761474609 29.71777725219727 C 24.26217651367188 29.71777725219727 25.29645729064941 28.68349647521973 25.29645729064941 27.41218566894531 L 25.29645729064941 10.92728614807129 L 17.15155792236328 10.92728614807129 L 17.15155792236328 2.999996185302734 L 5.305585861206055 2.999996185302734 M 5.305585861206055 -3.814697265625e-06 L 20.15155792236328 -3.814697265625e-06 L 20.15155792236328 7.927286148071289 L 28.29645729064941 7.927286148071289 L 28.29645729064941 27.41218566894531 C 28.29645729064941 30.34238624572754 25.92106628417969 32.71777725219727 22.99086761474609 32.71777725219727 L 5.305585861206055 32.71777725219727 C 2.375387191772461 32.71777725219727 -3.814697265625e-06 30.34238624572754 -3.814697265625e-06 27.41218566894531 L -3.814697265625e-06 5.305585861206055 C -3.814697265625e-06 2.375387191772461 2.375387191772461 -3.814697265625e-06 5.305585861206055 -3.814697265625e-06 Z" stroke="none" fill="#adacb6"/>
        </g>
        <path id="Path_3689" data-name="Path 3689" d="M0,0,8.172,8.023" transform="translate(19.218 0.887)" fill="none" stroke="#adacb6" stroke-width="3"/>
        <rect id="Rectangle_210" data-name="Rectangle 210" width="11" height="2.653" rx="1.326" transform="translate(7.635 19.57)" fill="#adacb6"/>
        <rect id="Rectangle_209" data-name="Rectangle 209" width="7" height="2.653" rx="1.326" transform="translate(7.635 13.381)" fill="#adacb6"/>
      </g>
      <g id="Group_1481" data-name="Group 1481" transform="matrix(0.921, 0.391, -0.391, 0.921, 232.202, 24.947)">
        <g id="Path_3687-2" data-name="Path 3687" fill="none">
          <path d="M5.306,0H20.152V7.927H28.3V27.412a5.306,5.306,0,0,1-5.306,5.306H5.306A5.306,5.306,0,0,1,0,27.412V5.306A5.306,5.306,0,0,1,5.306,0Z" stroke="none"/>
          <path d="M 5.305585861206055 2.999996185302734 C 4.034276962280273 2.999996185302734 2.999996185302734 4.034276962280273 2.999996185302734 5.305585861206055 L 2.999996185302734 27.41218566894531 C 2.999996185302734 28.68349647521973 4.034276962280273 29.71777725219727 5.305585861206055 29.71777725219727 L 22.99086761474609 29.71777725219727 C 24.26217651367188 29.71777725219727 25.29645729064941 28.68349647521973 25.29645729064941 27.41218566894531 L 25.29645729064941 10.92728614807129 L 17.15155792236328 10.92728614807129 L 17.15155792236328 2.999996185302734 L 5.305585861206055 2.999996185302734 M 5.305585861206055 -3.814697265625e-06 L 20.15155792236328 -3.814697265625e-06 L 20.15155792236328 7.927286148071289 L 28.29645729064941 7.927286148071289 L 28.29645729064941 27.41218566894531 C 28.29645729064941 30.34238624572754 25.92106628417969 32.71777725219727 22.99086761474609 32.71777725219727 L 5.305585861206055 32.71777725219727 C 2.375387191772461 32.71777725219727 -3.814697265625e-06 30.34238624572754 -3.814697265625e-06 27.41218566894531 L -3.814697265625e-06 5.305585861206055 C -3.814697265625e-06 2.375387191772461 2.375387191772461 -3.814697265625e-06 5.305585861206055 -3.814697265625e-06 Z" stroke="none" fill="#dcdcdc"/>
        </g>
        <path id="Path_3689-2" data-name="Path 3689" d="M0,0,8.116,7.867" transform="translate(19.294 1.044)" fill="none" stroke="#dcdcdc" stroke-width="3"/>
        <rect id="Rectangle_209-2" data-name="Rectangle 209" width="7" height="2.653" rx="1.326" transform="translate(7.635 13.381)" fill="#dcdcdc"/>
        <rect id="Rectangle_210-2" data-name="Rectangle 210" width="11" height="2.653" rx="1.326" transform="translate(7.635 19.57)" fill="#dcdcdc"/>
      </g>
      <g id="Group_1482" data-name="Group 1482" transform="matrix(0.966, -0.259, 0.259, 0.966, 42.279, 7.323)">
        <g id="Path_3687-3" data-name="Path 3687" fill="none">
          <path d="M5.306,0H20.152V7.927H28.3V27.412a5.306,5.306,0,0,1-5.306,5.306H5.306A5.306,5.306,0,0,1,0,27.412V5.306A5.306,5.306,0,0,1,5.306,0Z" stroke="none"/>
          <path d="M 5.305585861206055 2.999996185302734 C 4.034276962280273 2.999996185302734 2.999996185302734 4.034276962280273 2.999996185302734 5.305585861206055 L 2.999996185302734 27.41218566894531 C 2.999996185302734 28.68349647521973 4.034276962280273 29.71777725219727 5.305585861206055 29.71777725219727 L 22.99086761474609 29.71777725219727 C 24.26217651367188 29.71777725219727 25.29645729064941 28.68349647521973 25.29645729064941 27.41218566894531 L 25.29645729064941 10.92728614807129 L 17.15155792236328 10.92728614807129 L 17.15155792236328 2.999996185302734 L 5.305585861206055 2.999996185302734 M 5.305585861206055 -3.814697265625e-06 L 20.15155792236328 -3.814697265625e-06 L 20.15155792236328 7.927286148071289 L 28.29645729064941 7.927286148071289 L 28.29645729064941 27.41218566894531 C 28.29645729064941 30.34238624572754 25.92106628417969 32.71777725219727 22.99086761474609 32.71777725219727 L 5.305585861206055 32.71777725219727 C 2.375387191772461 32.71777725219727 -3.814697265625e-06 30.34238624572754 -3.814697265625e-06 27.41218566894531 L -3.814697265625e-06 5.305585861206055 C -3.814697265625e-06 2.375387191772461 2.375387191772461 -3.814697265625e-06 5.305585861206055 -3.814697265625e-06 Z" stroke="none" fill="#adacb6"/>
        </g>
        <path id="Path_3689-3" data-name="Path 3689" d="M0,0,8.191,7.974" transform="translate(19.181 0.962)" fill="none" stroke="#adacb6" stroke-width="3"/>
        <rect id="Rectangle_209-3" data-name="Rectangle 209" width="7" height="2.653" rx="1.326" transform="translate(7.635 13.381)" fill="#adacb6"/>
        <rect id="Rectangle_210-3" data-name="Rectangle 210" width="11" height="2.653" rx="1.326" transform="translate(7.635 19.57)" fill="#adacb6"/>
      </g>
      <g id="Group_1483" data-name="Group 1483" transform="matrix(0.921, -0.391, 0.391, 0.921, -1.515, 36.003)">
        <g id="Path_3687-4" data-name="Path 3687" fill="none">
          <path d="M5.306,0H20.152V7.927H28.3V27.412a5.306,5.306,0,0,1-5.306,5.306H5.306A5.306,5.306,0,0,1,0,27.412V5.306A5.306,5.306,0,0,1,5.306,0Z" stroke="none"/>
          <path d="M 5.305585861206055 2.999996185302734 C 4.034276962280273 2.999996185302734 2.999996185302734 4.034276962280273 2.999996185302734 5.305585861206055 L 2.999996185302734 27.41218566894531 C 2.999996185302734 28.68349647521973 4.034276962280273 29.71777725219727 5.305585861206055 29.71777725219727 L 22.99086761474609 29.71777725219727 C 24.26217651367188 29.71777725219727 25.29645729064941 28.68349647521973 25.29645729064941 27.41218566894531 L 25.29645729064941 10.92728614807129 L 17.15155792236328 10.92728614807129 L 17.15155792236328 2.999996185302734 L 5.305585861206055 2.999996185302734 M 5.305585861206055 -3.814697265625e-06 L 20.15155792236328 -3.814697265625e-06 L 20.15155792236328 7.927286148071289 L 28.29645729064941 7.927286148071289 L 28.29645729064941 27.41218566894531 C 28.29645729064941 30.34238624572754 25.92106628417969 32.71777725219727 22.99086761474609 32.71777725219727 L 5.305585861206055 32.71777725219727 C 2.375387191772461 32.71777725219727 -3.814697265625e-06 30.34238624572754 -3.814697265625e-06 27.41218566894531 L -3.814697265625e-06 5.305585861206055 C -3.814697265625e-06 2.375387191772461 2.375387191772461 -3.814697265625e-06 5.305585861206055 -3.814697265625e-06 Z" stroke="none" fill="#dcdcdc"/>
        </g>
        <path id="Path_3689-4" data-name="Path 3689" d="M0,0,8.135,7.916" transform="translate(19.226 0.951)" fill="none" stroke="#dcdcdc" stroke-width="3"/>
        <rect id="Rectangle_209-4" data-name="Rectangle 209" width="7" height="2.653" rx="1.326" transform="translate(7.635 13.381)" fill="#dcdcdc"/>
        <rect id="Rectangle_210-4" data-name="Rectangle 210" width="11" height="2.653" rx="1.326" transform="translate(7.635 19.57)" fill="#dcdcdc"/>
      </g>
    </g>
    <g id="Sparks" transform="translate(393.934 68.645)">
      <path id="Path_3690" data-name="Path 3690" d="M0,5.1A5.274,5.274,0,0,1,3.508,6.365C4.751,7.681,4.532,10.33,4.532,10.33s.073-2.772,1.413-3.965A7.276,7.276,0,0,1,9.865,5.1s-2.579.366-3.919-.974S4.532,0,4.532,0s.219,2.906-1.024,4.124A4.926,4.926,0,0,1,0,5.1Z" transform="translate(-1.444 62.579) rotate(-20)" fill="#9392a0"/>
      <path id="Path_3691" data-name="Path 3691" d="M0,5.873A6.076,6.076,0,0,1,4.042,7.332C5.473,8.848,5.221,11.9,5.221,11.9s.084-3.193,1.628-4.568,4.515-1.459,4.515-1.459-2.971.422-4.515-1.122S5.221,0,5.221,0s.252,3.348-1.18,4.751S0,5.873,0,5.873Z" transform="translate(120.419 0) rotate(13)" fill="#9392a0"/>
      <g id="Ellipse_86" data-name="Ellipse 86" transform="translate(181.764 17.927)" fill="none" stroke="#9392a0" stroke-width="1.5">
        <circle cx="3.095" cy="3.095" r="3.095" stroke="none"/>
        <circle cx="3.095" cy="3.095" r="2.345" fill="none"/>
      </g>
      <path id="Path_3692" data-name="Path 3692" d="M0,3.821a3.953,3.953,0,0,1,2.629.949A4.534,4.534,0,0,1,3.4,7.742S3.451,5.665,4.456,4.77a5.453,5.453,0,0,1,2.937-.949,3.953,3.953,0,0,1-2.937-.73A5.346,5.346,0,0,1,3.4,0s.164,2.178-.767,3.091A3.692,3.692,0,0,1,0,3.821Z" transform="translate(157.799 60.125) rotate(13)" fill="#9392a0"/>
      <g id="Ellipse_88" data-name="Ellipse 88" transform="translate(35.86 4.866)" fill="none" stroke="#9392a0" stroke-width="2">
        <circle cx="3.095" cy="3.095" r="3.095" stroke="none"/>
        <circle cx="3.095" cy="3.095" r="2.095" fill="none"/>
      </g>
    </g>
  </g>
</svg>
